HIERARCHY
ROOT Hips
{
  OFFSET 39.5698 98.839 4.35775
  CHANNELS 6 Xposition Yposition Zposition Zrotation Xrotation Yrotation
  JOINT spine
  {
    OFFSET 0 8.30103 0.477351
    CHANNELS 3 Zrotation Xrotation Yrotation
    JOINT spine1
    {
      OFFSET 0 10.4565 0
      CHANNELS 3 Zrotation Xrotation Yrotation
      JOINT spine2
      {
        OFFSET 0 10.0192 0
        CHANNELS 3 Zrotation Xrotation Yrotation
        JOINT Neck
        {
          OFFSET 0 25.7235 1.22641
          CHANNELS 3 Zrotation Xrotation Yrotation
          JOINT Head
          {
            OFFSET 0 7.77175 0
            CHANNELS 3 Zrotation Xrotation Yrotation
            End Site
            {
              OFFSET 0 18.812 -6.20394
            }
          }
        }
        JOINT RightShoulder
        {
          OFFSET -4.2188 10.82 -0.587439
          CHANNELS 3 Zrotation Xrotation Yrotation
          JOINT RightArm
          {
            OFFSET 0 14.1914 0
            CHANNELS 3 Zrotation Xrotation Yrotation
            JOINT RightArmRoll
            {
              OFFSET 0 7.16409 0
              CHANNELS 3 Zrotation Xrotation Yrotation
              JOINT RightForeArm
              {
                OFFSET 0 20.8665 0
                CHANNELS 3 Zrotation Xrotation Yrotation
                JOINT RightForeArmRoll
                {
                  OFFSET 0 8.03922 0
                  CHANNELS 3 Zrotation Xrotation Yrotation
                  JOINT RightHand
                  {
                    OFFSET 0 16.133 0
                    CHANNELS 3 Zrotation Xrotation Yrotation
                    End Site
                    {
                      OFFSET 0 0 0
                    }
                  }
                }
              }
            }
          }
        }
        JOINT LeftShoulder
        {
          OFFSET 4.2188 10.82 -0.587439
          CHANNELS 3 Zrotation Xrotation Yrotation
          JOINT LeftArm
          {
            OFFSET 0 14.1914 0
            CHANNELS 3 Zrotation Xrotation Yrotation
            JOINT LeftArmRoll
            {
              OFFSET 0 7.16408 0
              CHANNELS 3 Zrotation Xrotation Yrotation
              JOINT LeftForeArm
              {
                OFFSET 0 20.8665 0
                CHANNELS 3 Zrotation Xrotation Yrotation
                JOINT LeftForeArmRoll
                {
                  OFFSET 0 8.03921 0
                  CHANNELS 3 Zrotation Xrotation Yrotation
                  JOINT LeftHand
                  {
                    OFFSET 0 16.133 0
                    CHANNELS 3 Zrotation Xrotation Yrotation
                    End Site
                    {
                      OFFSET 0 0 0
                    }
                  }
                }
              }
            }
          }
        }
      }
    }
  }
  JOINT RightUpLeg
  {
    OFFSET -7.35773 -1.34921 -1.13181
    CHANNELS 3 Zrotation Xrotation Yrotation
    JOINT RightUpLegRoll
    {
      OFFSET 0 18.9168 0
      CHANNELS 3 Zrotation Xrotation Yrotation
      JOINT RightLeg
      {
        OFFSET 0 -23.4256 0
        CHANNELS 3 Zrotation Xrotation Yrotation
        JOINT RightLegRoll
        {
          OFFSET 0 23.5023 0
          CHANNELS 3 Zrotation Xrotation Yrotation
          JOINT RightFoot
          {
            OFFSET 0 19.5617 0
            CHANNELS 3 Zrotation Xrotation Yrotation
            JOINT RightToeBase
            {
              OFFSET 0 16.3526 0
              CHANNELS 3 Zrotation Xrotation Yrotation
              End Site
              {
                OFFSET 0.00693125 7.91943 -0.912837
              }
            }
          }
        }
      }
    }
  }
  JOINT LeftUpLeg
  {
    OFFSET 7.35773 -1.34921 -1.13181
    CHANNELS 3 Zrotation Xrotation Yrotation
    JOINT LeftUpLegRoll
    {
      OFFSET 0 18.9169 0
      CHANNELS 3 Zrotation Xrotation Yrotation
      JOINT LeftLeg
      {
        OFFSET 0 23.4255 0
        CHANNELS 3 Zrotation Xrotation Yrotation
        JOINT LeftLegRoll
        {
          OFFSET 0 23.7195 0
          CHANNELS 3 Zrotation Xrotation Yrotation
          JOINT LeftFoot
          {
            OFFSET 0 19.3444 0
            CHANNELS 3 Zrotation Xrotation Yrotation
            JOINT LeftToeBase
            {
              OFFSET 0 16.3526 0
              CHANNELS 3 Zrotation Xrotation Yrotation
              End Site
              {
                OFFSET -0.0310629 7.91943 -0.912837
              }
            }
          }
        }
      }
    }
  }
}
MOTION
Frames: 10
Frame Time: 0.00208333
39.4051 98.8353 4.53751 1.38328 -0.345413 3.07836 -0.08432 -2.6398 0.122244 -0.166703 -1.27996 0.249262 -0.169678 0.365107 0.252079 -5.10707 37.1241 1.13914 5.74153 -20.8965 0.398405 27.1759 -14.6751 -11.316 -12.3706 47.9724 110.457 -0 -7.95139e-016 -0 -28.7553 58.7543 31.8827 4.53612e-006 3.71746e-006 -3.00387 8.02894 -4.95146 0.697669 -33.0991 -9.24989 5.35729 -5.7011 43.8207 -97.7887 5.20764e-007 -1.50383e-007 -3.28196e-006 14.7975 60.7028 -15.1213 -2.84531e-006 8.42267e-007 3 -8.02894 -4.95147 -0.697689 175.447 0.509991 1.23295 180 7.01556e-015 178.961 176.029 5.68988 179.776 -1.25293e-006 -3.05391e-006 0.0674977 -18.8611 68.2931 19.7987 8.13649 25.2327 -3.48774 -176.87 0.103353 1.79978 4.54188e-006 -4.6773e-006 -1.07943 -3.50356 -6.97043 0.397801 -1.14586e-006 -8.28892e-006 -0.0728482 17.8983 66.9113 -18.67 -8.13649 25.2327 3.48773 
39.4025 98.8355 4.53894 1.38655 -0.345886 3.0601 -0.0857267 -2.63954 0.12121 -0.170045 -1.27987 0.247701 -0.172982 0.365192 0.250588 -5.10028 37.1489 1.14422 5.71485 -20.922 0.399609 27.1469 -14.6552 -11.2962 -12.6904 47.9539 110.686 -1.27222e-014 6.36111e-015 -5.56597e-015 -28.9665 59.2305 32.243 4.53612e-006 3.71746e-006 -3.00387 8.02894 -4.95146 0.697669 -33.0306 -9.24733 5.35358 -5.43073 43.8665 -98.1788 5.20764e-007 -1.50383e-007 -3.28196e-006 14.8293 61.0784 -15.277 -2.84531e-006 8.42267e-007 3 -8.02894 -4.95147 -0.697689 175.442 0.51229 1.23926 180 7.01556e-015 178.961 176.023 5.69141 179.777 -1.25293e-006 -3.05391e-006 0.0674564 -18.8594 68.2911 19.7969 8.13649 25.2327 -3.48774 -176.873 0.0991751 1.80359 4.54188e-006 -4.6773e-006 -1.07958 -3.50095 -6.97091 0.398557 -1.14586e-006 -8.28892e-006 -0.0729502 17.8994 66.9129 -18.6714 -8.13649 25.2327 3.48773 
39.3996 98.8352 4.54083 1.38978 -0.346398 3.04186 -0.0870976 -2.63917 0.120133 -0.173296 -1.2795 0.246037 -0.176195 0.365568 0.248992 -5.07001 37.1813 1.14408 5.65761 -20.9571 0.397548 27.1185 -14.6351 -11.2761 -13.0076 47.9327 110.909 -9.54166e-015 7.95139e-016 -4.77083e-015 -29.1846 59.7015 32.6088 4.53612e-006 3.71746e-006 -3.00387 8.02894 -4.95146 0.697669 -32.9637 -9.24403 5.34914 -5.16254 43.9085 -98.5633 5.20764e-007 -1.50383e-007 -3.28196e-006 14.8611 61.4515 -15.4324 -2.84531e-006 8.42267e-007 3 -8.02894 -4.95147 -0.697689 175.437 0.514602 1.24529 180 7.01556e-015 178.961 176.017 5.69295 179.777 -1.25293e-006 -3.05391e-006 0.0674152 -18.8576 68.2892 19.7952 8.13649 25.2327 -3.48774 -176.876 0.0948478 1.80725 4.54188e-006 -4.6773e-006 -1.07974 -3.49844 -6.97112 0.399303 -1.14586e-006 -8.28892e-006 -0.073052 17.9004 66.9144 -18.6728 -8.13649 25.2327 3.48773 
39.3983 98.8373 4.54446 1.39295 -0.346978 3.02369 -0.0884259 -2.63868 0.119014 -0.176432 -1.27878 0.244261 -0.179292 0.36628 0.247281 -5.01153 37.2227 1.13762 5.56419 -21.0033 0.391643 27.0905 -14.6153 -11.2562 -13.3225 47.909 111.127 -8.27607e-031 -1.19271e-014 -3.97569e-015 -29.4101 60.1657 32.98 4.53612e-006 3.71746e-006 -3.00387 8.02894 -4.95146 0.697669 -32.8984 -9.24006 5.34403 -4.89658 43.9465 -98.9418 5.20764e-007 -1.50383e-007 -3.28196e-006 14.8933 61.821 -15.5873 -2.84531e-006 8.42267e-007 3 -8.02894 -4.95147 -0.697689 175.433 0.516908 1.25094 180 7.01556e-015 178.961 176.011 5.69452 179.777 -1.25293e-006 -3.05391e-006 0.0673739 -18.856 68.2874 19.7935 8.13649 25.2327 -3.48774 -176.88 0.0903713 1.81067 4.54188e-006 -4.6773e-006 -1.07989 -3.4961 -6.97112 0.400023 -1.14586e-006 -8.28892e-006 -0.0731534 17.9013 66.9157 -18.6739 -8.13649 25.2327 3.48773 
39.3913 98.8399 4.54988 1.39603 -0.347655 3.00567 -0.0897052 -2.63806 0.117849 -0.179428 -1.27769 0.242363 -0.182251 0.367375 0.245444 -4.92008 37.2743 1.12371 5.42895 -21.0621 0.381315 27.0625 -14.5959 -11.2368 -13.6355 47.8829 111.339 -1.27222e-014 1.43125e-014 -1.27222e-014 -29.6435 60.6215 33.3564 4.53612e-006 3.71746e-006 -3.00387 8.02894 -4.95146 0.697669 -32.835 -9.23548 5.33831 -4.63289 43.9804 -99.3143 5.20764e-007 -1.50383e-007 -3.28196e-006 14.9262 62.1862 -15.7415 -2.84531e-006 8.42267e-007 3 -8.02894 -4.95147 -0.697689 175.429 0.519189 1.25608 180 7.01556e-015 178.961 176.007 5.69617 179.778 -1.25293e-006 -3.05391e-006 0.0673327 -18.8544 68.2856 19.792 8.13649 25.2327 -3.48774 -176.882 0.0857463 1.81376 4.54188e-006 -4.6773e-006 -1.08005 -3.49397 -6.97092 0.400699 -1.14586e-006 -8.28892e-006 -0.0732546 17.9021 66.9168 -18.6749 -8.13649 25.2327 3.48773 
39.3896 98.8324 4.55238 1.39899 -0.348457 2.98786 -0.0909289 -2.63729 0.116638 -0.182263 -1.27616 0.240333 -0.185048 0.368901 0.243469 -4.79088 37.3373 1.10123 5.24625 -21.1347 0.36598 27.0343 -14.5774 -11.2184 -13.9469 47.8544 111.547 -1.59028e-014 8.74653e-015 -1.11319e-014 -29.885 61.0672 33.7377 4.53612e-006 3.71746e-006 -3.00387 8.02894 -4.95146 0.697669 -32.7735 -9.23036 5.33204 -4.3715 44.01 -99.6803 5.20764e-007 -1.50383e-007 -3.28196e-006 14.9599 62.5462 -15.8948 -2.84531e-006 8.42267e-007 3 -8.02894 -4.95147 -0.697689 175.425 0.521426 1.26061 180 7.01556e-015 178.961 176.002 5.69794 179.778 -1.25293e-006 -3.05391e-006 0.0672914 -18.853 68.2841 19.7905 8.13649 25.2327 -3.48774 -176.885 0.0809733 1.81645 4.54188e-006 -4.6773e-006 -1.0802 -3.49213 -6.97057 0.401314 -1.14586e-006 -8.28892e-006 -0.0733554 17.9026 66.9176 -18.6756 -8.13649 25.2327 3.48773 
39.3847 98.8324 4.55331 1.40182 -0.349414 2.97034 -0.0920905 -2.63636 0.115379 -0.18491 -1.27416 0.238159 -0.187661 0.370905 0.241346 -4.61914 37.4129 1.06904 5.01044 -21.2225 0.345051 27.0054 -14.5601 -11.2013 -14.2569 47.8236 111.753 -6.36111e-015 5.56597e-015 -7.95139e-015 -30.1348 61.501 34.1234 4.53612e-006 3.71746e-006 -3.00387 8.02894 -4.95146 0.697669 -32.7143 -9.22479 5.32528 -4.11244 44.035 -100.04 5.20764e-007 -1.50383e-007 -3.28196e-006 14.9946 62.9 -16.0471 -2.84531e-006 8.42267e-007 3 -8.02894 -4.95147 -0.697689 175.422 0.523599 1.26442 180 7.01556e-015 178.961 175.999 5.69985 179.778 -1.25293e-006 -3.05391e-006 0.06725 -18.8517 68.2827 19.7893 8.13649 25.2327 -3.48774 -176.887 0.076053 1.81863 4.54188e-006 -4.6773e-006 -1.08036 -3.49064 -6.97008 0.40185 -1.14586e-006 -8.28892e-006 -0.073456 17.9029 66.9182 -18.676 -8.13649 25.2327 3.48773 
39.3814 98.8324 4.55722 1.40448 -0.350553 2.95316 -0.0931834 -2.63525 0.114071 -0.187348 -1.27163 0.235831 -0.190064 0.373433 0.239064 -4.40005 37.5025 1.02599 4.71584 -21.3271 0.317936 26.9757 -14.5445 -11.186 -14.5658 47.7907 111.956 -9.54166e-015 -2.14687e-014 1.27222e-014 -30.393 61.9215 34.5128 4.53612e-006 3.71746e-006 -3.00387 8.02894 -4.95146 0.697669 -32.6573 -9.21881 5.31811 -3.85578 44.0553 -100.392 5.20764e-007 -1.50383e-007 -3.28196e-006 15.0306 63.247 -16.1979 -2.84531e-006 8.42267e-007 3 -8.02894 -4.95147 -0.697689 175.42 0.52569 1.2674 180 7.01556e-015 178.961 175.997 5.70195 179.778 -1.25293e-006 -3.05391e-006 0.0672085 -18.8506 68.2815 19.7882 8.13649 25.2327 -3.48774 -176.889 0.070986 1.82022 4.54188e-006 -4.6773e-006 -1.08051 -3.48954 -6.9695 0.40229 -1.14586e-006 -8.28892e-006 -0.0735563 17.903 66.9184 -18.6762 -8.13649 25.2327 3.48773 
39.3786 98.832 4.54979 1.40718 -0.351922 2.93611 -0.0941859 -2.63393 0.112701 -0.189546 -1.26848 0.233308 -0.192229 0.376585 0.236578 -4.10682 37.6215 0.966896 4.32681 -21.466 0.281448 26.9451 -14.5292 -11.1713 -14.875 47.7534 112.153 -9.54166e-015 6.36111e-015 1.59028e-015 -30.6586 62.332 34.9062 4.53612e-006 3.71746e-006 -3.00387 8.02894 -4.95146 0.697669 -32.6024 -9.21245 5.31052 -3.60128 44.0726 -100.738 5.20764e-007 -1.50383e-007 -3.28196e-006 15.0647 63.5928 -16.3464 -2.84531e-006 8.42267e-007 3 -8.02894 -4.95147 -0.697689 175.417 0.527891 1.26961 180 7.01556e-015 178.961 175.995 5.70465 179.778 -1.25293e-006 -3.05391e-006 0.0671671 -18.8499 68.2807 19.7874 8.13649 25.2327 -3.48774 -176.891 0.065126 1.82129 4.54188e-006 -4.6773e-006 -1.08067 -3.48893 -6.9679 0.402687 -1.14586e-006 -8.28892e-006 -0.0736563 17.9025 66.9179 -18.6757 -8.13649 25.2327 3.48773 
39.375 98.8347 4.5546 1.41007 -0.353525 2.91896 -0.0950897 -2.6324 0.111259 -0.191508 -1.26469 0.230567 -0.194158 0.380379 0.23387 -3.72508 37.7795 0.889137 3.82359 -21.6505 0.233874 26.9141 -14.5133 -11.1557 -15.185 47.7104 112.341 -2.54444e-014 0 -1.11319e-014 -30.9307 62.7371 35.3043 4.53612e-006 3.71746e-006 -3.00387 8.02894 -4.95146 0.697669 -32.5492 -9.20562 5.30248 -3.3488 44.0884 -101.077 5.20764e-007 -1.50383e-007 -3.28196e-006 15.0942 63.9427 -16.4923 -2.84531e-006 8.42267e-007 3 -8.02894 -4.95147 -0.697689 175.415 0.530366 1.27124 180 7.01556e-015 178.961 175.995 5.70819 179.778 -1.25293e-006 -3.05391e-006 0.0671257 -18.8495 68.2804 19.7872 8.13649 25.2327 -3.48774 -176.893 0.0579983 1.82196 4.54188e-006 -4.6773e-006 -1.08082 -3.48881 -6.96457 0.403101 -1.14586e-006 -8.28892e-006 -0.073756 17.9012 66.9163 -18.6743 -8.13649 25.2327 3.48773 
